<svg width="213" height="57" viewBox="0 0 213 57" fill="none" xmlns="http://www.w3.org/2000/svg">
<path d="M2.64358 15H0V34.0926H2.64358V27.0094C2.64358 25.8111 2.94164 24.8658 3.53774 24.2001C4.13384 23.5344 4.95024 23.1882 5.96102 23.1882C6.82926 23.1882 7.55495 23.5078 8.13809 24.1202C8.72124 24.746 9.01929 25.5315 9.01929 26.4769V34.1059H11.6758V26.4769C11.6758 24.7194 11.1964 23.3347 10.2374 22.2962C9.27846 21.2577 8.02146 20.7384 6.49233 20.7384C6.05173 20.7384 5.61114 20.7917 5.1835 20.9115C4.7429 21.0313 4.39301 21.1645 4.10792 21.3109C3.82283 21.4574 3.5507 21.6172 3.30448 21.8036C3.05826 21.99 2.8898 22.1231 2.81205 22.203C2.7343 22.2829 2.6695 22.3361 2.64358 22.3761V15Z" fill="#F0145A"/>
<path d="M17.5856 15H14.8604V34.0767H17.5856V15Z" fill="#323264"/>
<path d="M33.6598 28.4896L33.796 27.127C33.796 25.3011 33.1965 23.7749 31.9701 22.5486C30.7438 21.3222 29.2176 20.7227 27.3917 20.7227C25.5658 20.7227 23.9851 21.3767 22.677 22.6848C21.3689 23.993 20.7148 25.5463 20.7148 27.3995C20.7148 29.3072 21.3962 30.9423 22.7315 32.305C24.0669 33.6676 25.6748 34.3489 27.528 34.3489C28.2365 34.3489 28.8906 34.2399 29.5446 34.0491C30.1987 33.8311 30.7438 33.6131 31.1253 33.3951C31.5341 33.1498 31.9429 32.8773 32.2971 32.5775C32.6514 32.2777 32.8967 32.0597 33.0057 31.9234C33.1147 31.7872 33.1965 31.7054 33.251 31.6236L31.4796 29.8522L31.0708 30.37C30.7983 30.6971 30.335 31.0241 29.6809 31.3784C28.9996 31.7327 28.291 31.8962 27.528 31.8962C26.4651 31.8962 25.5658 31.5691 24.8027 30.8878C24.0396 30.2065 23.5764 29.4162 23.4401 28.4896H33.6598ZM27.3917 23.0391C28.4 23.0391 29.2176 23.3389 29.8989 23.9112C30.553 24.5108 30.9618 25.2466 31.1253 26.1732H23.5491C23.7944 25.2466 24.2304 24.5108 24.9117 23.9112C25.5658 23.3389 26.4106 23.0391 27.3917 23.0391Z" fill="#323264"/>
<path d="M46.3695 33.286C46.3695 34.4852 46.0153 35.4662 45.2794 36.2293C44.5709 36.9651 43.6715 37.3467 42.5542 37.3467C42.0637 37.3467 41.5731 37.2649 41.1098 37.1286C40.6465 36.9924 40.2922 36.8289 39.9925 36.6381C39.6927 36.4473 39.4202 36.2566 39.1476 36.0113C38.9024 35.766 38.7389 35.6025 38.6571 35.5207C38.5753 35.439 38.5208 35.3572 38.4663 35.3027L36.6949 37.0741L36.9129 37.3467C37.0492 37.5374 37.2945 37.7827 37.6215 38.0552C37.9485 38.3005 38.3301 38.573 38.7661 38.8455C39.2021 39.0908 39.7472 39.3088 40.4285 39.4996C41.1098 39.6904 41.8184 39.7994 42.5542 39.7994C44.4074 39.7994 45.9335 39.1726 47.2144 37.919C48.468 36.6381 49.0948 35.112 49.0948 33.2588V20.9952H46.3695V22.3578L45.9063 21.949C45.6065 21.6765 45.1432 21.404 44.4891 21.1314C43.8351 20.8589 43.1265 20.7227 42.4179 20.7227C40.7555 20.7227 39.3384 21.3495 38.112 22.6303C36.8857 23.9112 36.2861 25.4373 36.2861 27.2632C36.2861 29.0892 36.8857 30.6153 38.112 31.8962C39.3384 33.177 40.7555 33.8038 42.4179 33.8038C42.8812 33.8038 43.3173 33.7493 43.7806 33.6403C44.2166 33.5041 44.5709 33.3678 44.8707 33.2315C45.1704 33.0953 45.443 32.9318 45.6882 32.741C45.9335 32.5502 46.1243 32.414 46.1788 32.3595L46.3695 32.1687V33.286ZM39.0114 27.2632C39.0114 26.1186 39.3657 25.1648 40.1015 24.3745C40.8373 23.5842 41.7094 23.1754 42.6905 23.1754C43.6715 23.1754 44.5436 23.5842 45.2794 24.3745C45.988 25.1648 46.3695 26.1186 46.3695 27.2632C46.3695 28.4079 45.988 29.3617 45.2794 30.152C44.5436 30.9423 43.6715 31.3511 42.6905 31.3511C41.7094 31.3511 40.8373 30.9423 40.1015 30.152C39.3657 29.3617 39.0114 28.4079 39.0114 27.2632Z" fill="#323264"/>
<path d="M63.3195 34.0764V25.6281C63.3195 24.2382 62.8017 23.0664 61.7934 22.1398C60.7851 21.1859 59.4769 20.7227 57.869 20.7227C57.2422 20.7227 56.6154 20.8044 56.0159 20.9679C55.4163 21.1587 54.9258 21.3495 54.5715 21.5675C54.2172 21.7855 53.8629 22.0308 53.5359 22.3306C53.2089 22.6031 53.0181 22.7938 52.9091 22.9029C52.8273 23.0119 52.7456 23.0936 52.6911 23.1754L54.4625 24.9468L54.8168 24.4835C55.0348 24.1837 55.4163 23.9112 55.9886 23.6114C56.5609 23.3116 57.1877 23.1754 57.869 23.1754C58.6594 23.1754 59.3134 23.4207 59.8312 23.8839C60.349 24.3472 60.5943 24.9468 60.5943 25.6281L55.8251 26.4457C54.6533 26.6364 53.6994 27.0997 53.0454 27.8356C52.364 28.5714 52.0098 29.4707 52.0098 30.5335C52.0098 31.5419 52.4458 32.414 53.3179 33.177C54.2172 33.9674 55.3073 34.3489 56.6427 34.3489C57.106 34.3489 57.542 34.2944 57.9781 34.1581C58.4413 34.0491 58.7956 33.9129 59.0954 33.7766C59.3952 33.6403 59.6677 33.4768 59.913 33.286C60.1583 33.0953 60.3218 32.959 60.4308 32.9045C60.5125 32.8228 60.567 32.741 60.5943 32.7137V34.0764H63.3195ZM57.0515 31.8962C56.3429 31.8962 55.7706 31.7327 55.3618 31.4056C54.9258 31.0786 54.735 30.6971 54.735 30.261C54.735 29.7977 54.8713 29.3889 55.1711 29.0892C55.4708 28.7894 55.8796 28.5714 56.3702 28.4896L60.5943 27.8083V28.0808C60.5943 29.3072 60.2945 30.2338 59.6677 30.9151C59.0409 31.5691 58.1688 31.8962 57.0515 31.8962Z" fill="#323264"/>
<path d="M69.3337 15H66.6084V34.0767H69.3337V15Z" fill="#323264"/>
<path d="M0 43.3298H0.852878V46.3201H2.70078V47.0151H0V43.3298Z" fill="#323264"/>
<path d="M8.26752 46.2254H6.5565L6.23009 47.0151H5.35615L6.99873 43.3298H7.84108L9.48893 47.0151H8.59393L8.26752 46.2254ZM7.99902 45.5778L7.41464 44.1669L6.83026 45.5778H7.99902Z" fill="#323264"/>
<path d="M17.8731 43.3298L16.6675 47.0151H15.7515L14.9407 44.5196L14.1036 47.0151H13.1928L11.982 43.3298H12.8664L13.6982 45.92L14.5669 43.3298H15.3566L16.199 45.9411L17.0571 43.3298H17.8731Z" fill="#323264"/>
<path d="M26.9457 47.0782C26.5702 47.0782 26.2297 46.9975 25.9244 46.8361C25.6225 46.6711 25.3838 46.4447 25.2084 46.1569C25.0364 45.8656 24.9504 45.5374 24.9504 45.1724C24.9504 44.8074 25.0364 44.481 25.2084 44.1932C25.3838 43.9019 25.6225 43.6755 25.9244 43.514C26.2297 43.3491 26.5719 43.2666 26.951 43.2666C27.2704 43.2666 27.5582 43.3228 27.8144 43.4351C28.0741 43.5474 28.2917 43.7088 28.4672 43.9194L27.9197 44.4248C27.6705 44.137 27.3616 43.9931 26.9931 43.9931C26.7649 43.9931 26.5614 44.044 26.3824 44.1458C26.2034 44.2441 26.063 44.3827 25.9612 44.5617C25.8629 44.7407 25.8138 44.9443 25.8138 45.1724C25.8138 45.4006 25.8629 45.6041 25.9612 45.7831C26.063 45.9621 26.2034 46.1025 26.3824 46.2043C26.5614 46.3026 26.7649 46.3517 26.9931 46.3517C27.3616 46.3517 27.6705 46.206 27.9197 45.9147L28.4672 46.4201C28.2917 46.6342 28.0741 46.7974 27.8144 46.9098C27.5547 47.0221 27.2651 47.0782 26.9457 47.0782Z" fill="#323264"/>
<path d="M33.3831 47.0782C33.0005 47.0782 32.6548 46.9958 32.3459 46.8308C32.0406 46.6658 31.8002 46.4395 31.6247 46.1516C31.4527 45.8603 31.3667 45.5339 31.3667 45.1724C31.3667 44.8109 31.4527 44.4863 31.6247 44.1985C31.8002 43.9071 32.0406 43.679 32.3459 43.514C32.6548 43.3491 33.0005 43.2666 33.3831 43.2666C33.7657 43.2666 34.1096 43.3491 34.415 43.514C34.7203 43.679 34.9607 43.9071 35.1362 44.1985C35.3117 44.4863 35.3995 44.8109 35.3995 45.1724C35.3995 45.5339 35.3117 45.8603 35.1362 46.1516C34.9607 46.4395 34.7203 46.6658 34.415 46.8308C34.1096 46.9958 33.7657 47.0782 33.3831 47.0782ZM33.3831 46.3517C33.6007 46.3517 33.7972 46.3026 33.9727 46.2043C34.1482 46.1025 34.2851 45.9621 34.3834 45.7831C34.4852 45.6041 34.5361 45.4006 34.5361 45.1724C34.5361 44.9443 34.4852 44.7407 34.3834 44.5617C34.2851 44.3827 34.1482 44.2441 33.9727 44.1458C33.7972 44.044 33.6007 43.9931 33.3831 43.9931C33.1655 43.9931 32.9689 44.044 32.7934 44.1458C32.618 44.2441 32.4793 44.3827 32.3775 44.5617C32.2793 44.7407 32.2301 44.9443 32.2301 45.1724C32.2301 45.4006 32.2793 45.6041 32.3775 45.7831C32.4793 45.9621 32.618 46.1025 32.7934 46.2043C32.9689 46.3026 33.1655 46.3517 33.3831 46.3517Z" fill="#323264"/>
<path d="M42.0264 47.0151L42.0211 44.8039L40.9366 46.6255H40.5523L39.473 44.8513V47.0151H38.6728V43.3298H39.3782L40.7576 45.6199L42.1159 43.3298H42.8161L42.8266 47.0151H42.0264Z" fill="#323264"/>
<path d="M47.9285 43.3298C48.2549 43.3298 48.5374 43.3842 48.7761 43.493C49.0183 43.6018 49.2043 43.7562 49.3342 43.9563C49.464 44.1563 49.529 44.3932 49.529 44.667C49.529 44.9373 49.464 45.1742 49.3342 45.3777C49.2043 45.5778 49.0183 45.7322 48.7761 45.841C48.5374 45.9463 48.2549 45.999 47.9285 45.999H47.1862V47.0151H46.3333V43.3298H47.9285ZM47.8811 45.304C48.1373 45.304 48.3321 45.2496 48.4655 45.1408C48.5989 45.0285 48.6656 44.8706 48.6656 44.667C48.6656 44.4599 48.5989 44.302 48.4655 44.1932C48.3321 44.0809 48.1373 44.0247 47.8811 44.0247H47.1862V45.304H47.8811Z" fill="#323264"/>
<path d="M55.0121 46.2254H53.3011L52.9747 47.0151H52.1008L53.7433 43.3298H54.5857L56.2335 47.0151H55.3385L55.0121 46.2254ZM54.7436 45.5778L54.1592 44.1669L53.5749 45.5778H54.7436Z" fill="#323264"/>
<path d="M62.6281 43.3298V47.0151H61.9279L60.0906 44.7776V47.0151H59.2482V43.3298H59.9537L61.7858 45.5673V43.3298H62.6281Z" fill="#323264"/>
<path d="M67.9013 45.7094V47.0151H67.0485V45.6989L65.6217 43.3298H66.5273L67.5117 44.9671L68.4963 43.3298H69.3333L67.9013 45.7094Z" fill="#323264"/>
<path fill-rule="evenodd" clip-rule="evenodd" d="M81.7283 15H84.9505L76.5557 41H73.3335L81.7283 15Z" fill="#F0145A"/>
<path d="M96.3502 34.1C95.4435 34.1 94.6235 33.8933 93.8902 33.48C93.1569 33.0533 92.5702 32.4467 92.1302 31.66C91.7035 30.86 91.4902 29.8867 91.4902 28.74C91.4902 27.5933 91.7035 26.6267 92.1302 25.84C92.5569 25.04 93.1369 24.4333 93.8702 24.02C94.6035 23.6067 95.4302 23.4 96.3502 23.4C97.3502 23.4 98.2435 23.6267 99.0302 24.08C99.8302 24.52 100.457 25.1467 100.91 25.96C101.364 26.76 101.59 27.6867 101.59 28.74C101.59 29.8067 101.364 30.74 100.91 31.54C100.457 32.34 99.8302 32.9667 99.0302 33.42C98.2435 33.8733 97.3502 34.1 96.3502 34.1ZM90.9302 37.88V23.5H92.2902V26.66L92.1502 28.76L92.3502 30.88V37.88H90.9302ZM96.2502 32.84C96.9969 32.84 97.6635 32.6733 98.2502 32.34C98.8369 31.9933 99.3035 31.5133 99.6502 30.9C99.9969 30.2733 100.17 29.5533 100.17 28.74C100.17 27.9267 99.9969 27.2133 99.6502 26.6C99.3035 25.9867 98.8369 25.5067 98.2502 25.16C97.6635 24.8133 96.9969 24.64 96.2502 24.64C95.5035 24.64 94.8302 24.8133 94.2302 25.16C93.6435 25.5067 93.1769 25.9867 92.8302 26.6C92.4969 27.2133 92.3302 27.9267 92.3302 28.74C92.3302 29.5533 92.4969 30.2733 92.8302 30.9C93.1769 31.5133 93.6435 31.9933 94.2302 32.34C94.8302 32.6733 95.5035 32.84 96.2502 32.84ZM108.825 34.1C107.932 34.1 107.152 33.9333 106.485 33.6C105.818 33.2667 105.298 32.7667 104.925 32.1C104.565 31.4333 104.385 30.6 104.385 29.6V23.5H105.805V29.44C105.805 30.56 106.078 31.4067 106.625 31.98C107.185 32.54 107.965 32.82 108.965 32.82C109.698 32.82 110.332 32.6733 110.865 32.38C111.412 32.0733 111.825 31.6333 112.105 31.06C112.398 30.4867 112.545 29.8 112.545 29V23.5H113.965V34H112.605V31.12L112.825 31.64C112.492 32.4133 111.972 33.02 111.265 33.46C110.572 33.8867 109.758 34.1 108.825 34.1ZM123.342 34.1C122.422 34.1 121.596 33.8933 120.862 33.48C120.129 33.0533 119.549 32.44 119.122 31.64C118.696 30.84 118.482 29.8733 118.482 28.74C118.482 27.5933 118.696 26.6267 119.122 25.84C119.562 25.04 120.149 24.4333 120.882 24.02C121.616 23.6067 122.436 23.4 123.342 23.4C124.342 23.4 125.236 23.6267 126.022 24.08C126.822 24.52 127.449 25.14 127.902 25.94C128.356 26.74 128.582 27.6733 128.582 28.74C128.582 29.7933 128.356 30.7267 127.902 31.54C127.449 32.34 126.822 32.9667 126.022 33.42C125.236 33.8733 124.342 34.1 123.342 34.1ZM117.922 34V19.16H119.342V26.6L119.142 28.72L119.282 30.84V34H117.922ZM123.242 32.84C123.989 32.84 124.656 32.6733 125.242 32.34C125.829 31.9933 126.296 31.5133 126.642 30.9C126.989 30.2733 127.162 29.5533 127.162 28.74C127.162 27.9133 126.989 27.1933 126.642 26.58C126.296 25.9667 125.829 25.4933 125.242 25.16C124.656 24.8133 123.989 24.64 123.242 24.64C122.496 24.64 121.822 24.8133 121.222 25.16C120.636 25.4933 120.169 25.9667 119.822 26.58C119.489 27.1933 119.322 27.9133 119.322 28.74C119.322 29.5533 119.489 30.2733 119.822 30.9C120.169 31.5133 120.636 31.9933 121.222 32.34C121.822 32.6733 122.496 32.84 123.242 32.84ZM131.477 34V19.16H132.897V34H131.477ZM136.848 34V23.5H138.268V34H136.848ZM137.568 21.18C137.275 21.18 137.028 21.08 136.828 20.88C136.628 20.68 136.528 20.44 136.528 20.16C136.528 19.88 136.628 19.6467 136.828 19.46C137.028 19.26 137.275 19.16 137.568 19.16C137.861 19.16 138.108 19.2533 138.308 19.44C138.508 19.6267 138.608 19.86 138.608 20.14C138.608 20.4333 138.508 20.68 138.308 20.88C138.121 21.08 137.875 21.18 137.568 21.18ZM146.579 34.1C145.539 34.1 144.606 33.8733 143.779 33.42C142.966 32.9533 142.326 32.32 141.859 31.52C141.393 30.7067 141.159 29.78 141.159 28.74C141.159 27.6867 141.393 26.76 141.859 25.96C142.326 25.16 142.966 24.5333 143.779 24.08C144.606 23.6267 145.539 23.4 146.579 23.4C147.473 23.4 148.279 23.5733 148.999 23.92C149.719 24.2667 150.286 24.7867 150.699 25.48L149.639 26.2C149.279 25.6667 148.833 25.2733 148.299 25.02C147.766 24.7667 147.186 24.64 146.559 24.64C145.813 24.64 145.139 24.8133 144.539 25.16C143.939 25.4933 143.466 25.9667 143.119 26.58C142.773 27.1933 142.599 27.9133 142.599 28.74C142.599 29.5667 142.773 30.2867 143.119 30.9C143.466 31.5133 143.939 31.9933 144.539 32.34C145.139 32.6733 145.813 32.84 146.559 32.84C147.186 32.84 147.766 32.7133 148.299 32.46C148.833 32.2067 149.279 31.82 149.639 31.3L150.699 32.02C150.286 32.7 149.719 33.22 148.999 33.58C148.279 33.9267 147.473 34.1 146.579 34.1ZM160.069 34V31.68L160.009 31.3V27.42C160.009 26.5267 159.755 25.84 159.249 25.36C158.755 24.88 158.015 24.64 157.029 24.64C156.349 24.64 155.702 24.7533 155.089 24.98C154.475 25.2067 153.955 25.5067 153.529 25.88L152.889 24.82C153.422 24.3667 154.062 24.02 154.809 23.78C155.555 23.5267 156.342 23.4 157.169 23.4C158.529 23.4 159.575 23.74 160.309 24.42C161.055 25.0867 161.429 26.1067 161.429 27.48V34H160.069ZM156.449 34.1C155.662 34.1 154.975 33.9733 154.389 33.72C153.815 33.4533 153.375 33.0933 153.069 32.64C152.762 32.1733 152.609 31.64 152.609 31.04C152.609 30.4933 152.735 30 152.989 29.56C153.255 29.1067 153.682 28.7467 154.269 28.48C154.869 28.2 155.669 28.06 156.669 28.06H160.289V29.12H156.709C155.695 29.12 154.989 29.3 154.589 29.66C154.202 30.02 154.009 30.4667 154.009 31C154.009 31.6 154.242 32.08 154.709 32.44C155.175 32.8 155.829 32.98 156.669 32.98C157.469 32.98 158.155 32.8 158.729 32.44C159.315 32.0667 159.742 31.5333 160.009 30.84L160.329 31.82C160.062 32.5133 159.595 33.0667 158.929 33.48C158.275 33.8933 157.449 34.1 156.449 34.1ZM168.606 34.1C167.619 34.1 166.859 33.8333 166.326 33.3C165.792 32.7667 165.526 32.0133 165.526 31.04V21.18H166.946V30.96C166.946 31.5733 167.099 32.0467 167.406 32.38C167.726 32.7133 168.179 32.88 168.766 32.88C169.392 32.88 169.912 32.7 170.326 32.34L170.826 33.36C170.546 33.6133 170.206 33.8 169.806 33.92C169.419 34.04 169.019 34.1 168.606 34.1ZM163.646 24.68V23.5H170.146V24.68H163.646ZM173.411 34V23.5H174.831V34H173.411ZM174.131 21.18C173.837 21.18 173.591 21.08 173.391 20.88C173.191 20.68 173.091 20.44 173.091 20.16C173.091 19.88 173.191 19.6467 173.391 19.46C173.591 19.26 173.837 19.16 174.131 19.16C174.424 19.16 174.671 19.2533 174.871 19.44C175.071 19.6267 175.171 19.86 175.171 20.14C175.171 20.4333 175.071 20.68 174.871 20.88C174.684 21.08 174.437 21.18 174.131 21.18ZM183.062 34.1C182.048 34.1 181.135 33.8733 180.322 33.42C179.522 32.9533 178.888 32.32 178.422 31.52C177.955 30.7067 177.722 29.78 177.722 28.74C177.722 27.6867 177.955 26.76 178.422 25.96C178.888 25.16 179.522 24.5333 180.322 24.08C181.122 23.6267 182.035 23.4 183.062 23.4C184.102 23.4 185.022 23.6267 185.822 24.08C186.635 24.5333 187.268 25.16 187.722 25.96C188.188 26.76 188.422 27.6867 188.422 28.74C188.422 29.78 188.188 30.7067 187.722 31.52C187.268 32.32 186.635 32.9533 185.822 33.42C185.008 33.8733 184.088 34.1 183.062 34.1ZM183.062 32.84C183.822 32.84 184.495 32.6733 185.082 32.34C185.668 31.9933 186.128 31.5133 186.462 30.9C186.808 30.2733 186.982 29.5533 186.982 28.74C186.982 27.9133 186.808 27.1933 186.462 26.58C186.128 25.9667 185.668 25.4933 185.082 25.16C184.495 24.8133 183.828 24.64 183.082 24.64C182.335 24.64 181.668 24.8133 181.082 25.16C180.495 25.4933 180.028 25.9667 179.682 26.58C179.335 27.1933 179.162 27.9133 179.162 28.74C179.162 29.5533 179.335 30.2733 179.682 30.9C180.028 31.5133 180.495 31.9933 181.082 32.34C181.668 32.6733 182.328 32.84 183.062 32.84ZM196.681 23.4C197.534 23.4 198.281 23.5667 198.921 23.9C199.574 24.22 200.081 24.7133 200.441 25.38C200.814 26.0467 201.001 26.8867 201.001 27.9V34H199.581V28.04C199.581 26.9333 199.301 26.1 198.741 25.54C198.194 24.9667 197.421 24.68 196.421 24.68C195.674 24.68 195.021 24.8333 194.461 25.14C193.914 25.4333 193.487 25.8667 193.181 26.44C192.887 27 192.741 27.68 192.741 28.48V34H191.321V23.5H192.681V26.38L192.461 25.84C192.794 25.08 193.327 24.4867 194.061 24.06C194.794 23.62 195.667 23.4 196.681 23.4ZM207.656 34.1C206.79 34.1 205.97 33.98 205.196 33.74C204.423 33.4867 203.816 33.1733 203.376 32.8L204.016 31.68C204.443 32 204.99 32.28 205.656 32.52C206.323 32.7467 207.023 32.86 207.756 32.86C208.756 32.86 209.476 32.7067 209.916 32.4C210.356 32.08 210.576 31.66 210.576 31.14C210.576 30.7533 210.45 30.4533 210.196 30.24C209.956 30.0133 209.636 29.8467 209.236 29.74C208.836 29.62 208.39 29.52 207.896 29.44C207.403 29.36 206.91 29.2667 206.416 29.16C205.936 29.0533 205.496 28.9 205.096 28.7C204.696 28.4867 204.37 28.2 204.116 27.84C203.876 27.48 203.756 27 203.756 26.4C203.756 25.8267 203.916 25.3133 204.236 24.86C204.556 24.4067 205.023 24.0533 205.636 23.8C206.263 23.5333 207.023 23.4 207.916 23.4C208.596 23.4 209.276 23.4933 209.956 23.68C210.636 23.8533 211.196 24.0867 211.636 24.38L211.016 25.52C210.55 25.2 210.05 24.9733 209.516 24.84C208.983 24.6933 208.45 24.62 207.916 24.62C206.97 24.62 206.27 24.7867 205.816 25.12C205.376 25.44 205.156 25.8533 205.156 26.36C205.156 26.76 205.276 27.0733 205.516 27.3C205.77 27.5267 206.096 27.7067 206.496 27.84C206.91 27.96 207.356 28.06 207.836 28.14C208.33 28.22 208.816 28.32 209.296 28.44C209.79 28.5467 210.236 28.7 210.636 28.9C211.05 29.0867 211.376 29.36 211.616 29.72C211.87 30.0667 211.996 30.5267 211.996 31.1C211.996 31.7133 211.823 32.2467 211.476 32.7C211.143 33.14 210.65 33.4867 209.996 33.74C209.356 33.98 208.576 34.1 207.656 34.1Z" fill="#323264"/>
</svg>
